<svg width="24" height="24" viewBox="0 0 24 24" fill="none" xmlns="http://www.w3.org/2000/svg">
<path d="M8.00002 3H16C16.2652 3 16.5196 3.10536 16.7071 3.29289C16.8947 3.48043 17 3.73478 17 4V11H20C20.1974 11.001 20.3902 11.0604 20.5539 11.1707C20.7176 11.2811 20.845 11.4374 20.92 11.62C20.9966 11.8021 21.0175 12.0028 20.9801 12.1968C20.9428 12.3908 20.8488 12.5694 20.71 12.71L12.71 20.71C12.6171 20.8037 12.5065 20.8781 12.3846 20.9289C12.2627 20.9797 12.132 21.0058 12 21.0058C11.868 21.0058 11.7373 20.9797 11.6154 20.9289C11.4936 20.8781 11.383 20.8037 11.29 20.71L3.29002 12.71C3.15126 12.5694 3.05726 12.3908 3.01989 12.1968C2.98252 12.0028 3.00344 11.8021 3.08002 11.62C3.15504 11.4374 3.28244 11.2811 3.44616 11.1707C3.60988 11.0604 3.80259 11.001 4.00002 11H7.00002V4C7.00002 3.73478 7.10537 3.48043 7.29291 3.29289C7.48045 3.10536 7.7348 3 8.00002 3Z" fill="#F9F9F9"/>
</svg>
